<?xml version="1.0" encoding="utf-8"?>
<!-- Generator: Adobe Illustrator 26.3.0, SVG Export Plug-In . SVG Version: 6.00 Build 0)  -->
<svg version="1.1" id="Layer_1" xmlns="http://www.w3.org/2000/svg" xmlns:xlink="http://www.w3.org/1999/xlink" x="0px" y="0px"
	 viewBox="0 0 419.5 87.7" style="enable-background:new 0 0 419.5 87.7;" xml:space="preserve">
<style type="text/css">
	.st0{display:none;}
	.st1{display:inline;fill:#1B5A9C;}
	.st2{fill:#1B5A9C;}
</style>
<g>
	<g id="shape_x5F_original" class="st0">
		<path class="st1" d="M404,74.5C404,74.5,404,74.5,404,74.5c-0.5,0-320.9,0.5-326.5-0.5c-2.7-0.5-5.1-1.4-7-2.4
			c0.6-0.6,1.1-1.2,1.4-1.9c0.8-1.7,0.9-3.2,0.8-4.4c0.1,0,0.2,0,0.2-0.1c1.3-0.4,2.3-1,2.9-1.9c0.8,1.4,2.5,3.6,5.9,4.2
			c0.5,0.1,0.9,0.1,1.3,0.1c2,0,3.5-0.9,4.4-1.7c1-0.9,1.8-1.9,2.1-2.8c1.5,0.1,2.9-0.2,3.9-0.7c2.1-1.2,2.8-1.9,3.5-5.5
			c1-0.3,3.4-1.3,4-3.4c0.5-1.6,0.3-3,0.1-3.8c0,0,0,0,0,0c1.3-0.3,2.4-1.4,3-3.1c0.9-2.4-0.6-4.9-1.4-5.9c0.6-0.6,1.3-1.8,1.2-4.1
			c-0.1-2.9-2.1-4.4-3-5c0.2-1.1,0.5-3.4-0.2-5.2c-0.7-2-3.1-3.1-4.2-3.6c0-1-0.2-3.2-1.9-5.4c-1.9-2.4-5-2.1-6.3-1.9
			c-0.9-2.4-3.9-5.4-8.2-4.6c-3.9,0.7-5.1,4.2-5.2,5.9l0,0v45.1c-0.3,1.2-1.5,1.7-2.5,2c-0.1,0-0.2,0-0.2,0.1
			c-0.2-0.6-0.6-1.1-0.8-1.4c-1.2-1.5-3.1-2.3-4.6-2c-0.9,0.2-1.5,0.8-1.7,1.6c-0.2,0.7,0,1.5,0.6,2c1.1,1.1,3.3,1.6,5.5,1.4
			c0.1,0.9,0,2.1-0.6,3.6c-0.3,0.7-0.8,1.3-1.4,1.8c-3.5-2.2-5.3-4.6-5.3-4.7c-0.2-0.3-0.6-0.4-1-0.2c-0.3,0.2-0.4,0.6-0.2,1
			c0.1,0.2,1.8,2.5,5.2,4.7c-2.4,1.4-5.7,2.1-8.6,2.5c-1.5,0.2-3,0.3-4.4,0.4c-0.8-0.1-9.7-1.1-10.6-6.1c-0.2-1,0.1-1.9,0.8-2.7
			c1.9-2.3,6.3-3.4,9.8-3.5c0.8,0,1.6,0,2.4,0c3,0.1,5.9,0.2,6.5-3.4c0.7-3.9-1.2-8.2-2.3-10.7c-0.4-0.9-0.7-1.6-0.8-2
			c-0.2-1-0.5-2.9-0.6-3.8c-0.1-0.4-0.4-0.7-0.8-0.6c-0.4,0-0.7,0.4-0.7,0.7c0,8.7-0.7,10.9-1.2,11.4c-1.8,2-12.6,10-16.2,9.5
			c-1.9-0.3-2.6-1.3-2.6-2.1c0-0.6,0.4-1.3,1.3-1.4l0.5-0.1l0.1-0.5c0,0,0.2-1,0.9-1.4c0.4-0.3,0.9-0.3,1.5-0.2
			c0.8,0.2,1.2,0.4,1.6,0.5c1.1,0.4,1.4,0.1,2.3-0.8c0.1-0.1,0.2-0.2,0.4-0.4c0.7-0.7,1.9-1.7,3-2.6c1.6-1.3,3.1-2.5,3.7-3.4
			c0.4-0.6,0.4-2.1,0.5-5.2c0-3.7,0-9.2,1.5-10.3c1.4-1,3.5-1.6,5.4-2.1c1.8-0.5,3.2-0.8,3.9-1.6c0.9-1,1-3,0.9-4.3
			c0.7,0.3,1.4,0.5,2,0.5c0.5,0,0.9-0.1,1.3-0.2c2.5-0.7,4.2-3.4,4.6-5.6c0.4-2.1,1.1-6.3-0.9-9c-1-1.3-2.5-2-4.5-2.2
			c-1.9-0.2-3.5,0.3-4.7,1.4c-2.4,2.2-2.4,6-2.4,6.2c0,0.2,0,4.4,2.6,7.2c0.2,0.2,0.4,0.4,0.6,0.5c0,0,0,0,0,0
			c0.2,1.1,0.3,3.5-0.5,4.3c-0.4,0.4-1.8,0.8-3.2,1.2c-2,0.5-4.3,1.1-5.9,2.3c-1.8,1.4-2,5.8-2,11.4c0,1.8,0,4-0.2,4.4
			c-0.5,0.7-2,1.9-3.4,3.1c-1.1,0.9-2.3,1.9-3.1,2.6c-0.1,0.1-0.3,0.3-0.4,0.4c-0.2,0.2-0.4,0.4-0.6,0.5c-0.1,0-0.1-0.1-0.2-0.1
			c-0.3-0.1-0.9-0.4-1.8-0.6c-1-0.2-1.9-0.1-2.6,0.4c-0.8,0.5-1.2,1.4-1.4,1.9c-1.2,0.4-2,1.4-2,2.7c0,1.5,1.2,3.2,3.8,3.5
			c1,0.1,2.3-0.2,3.7-0.8c-0.3,0.3-0.6,0.5-0.8,0.8c-0.9,1.1-1.3,2.4-1,3.8c0.5,3.1,3.3,4.9,6.1,5.9H11.1c-0.4,0-0.7,0.3-0.7,0.7
			c0,0.4,0.3,0.7,0.7,0.7h39.2c0.2,0,1,0,2.1,0c4,0,12.4-0.4,17-3.5c2.1,1.2,4.7,2.3,7.9,2.8c3,0.5,18.6,0.7,32.9,0.7
			c12.7,0,292.8-0.1,293.8-0.1c0.4,0,0.7-0.3,0.7-0.7C404.7,74.8,404.4,74.5,404,74.5z M80.5,12.2c3.7-0.7,6.2,2.2,6.7,3.9
			c0.2,0.5,0.7,0.8,1.2,0.7c0.8-0.2,3.6-0.5,5.2,1.4c1.6,2,1.7,3.9,1.6,4.7c0,0.5,0.3,0.9,0.7,1.1c0.7,0.3,3,1.2,3.6,2.8
			c0.5,1.4,0.3,3.3,0.2,4.2c-2.2-0.7-4.2,0.1-5.3,0.9c-0.7-1.1-2-1.8-2.8-2.1c-0.4-0.1-0.7,0.1-0.9,0.5c-0.1,0.4,0.1,0.7,0.4,0.9
			c0.1,0,2.8,0.9,2.4,3.1c-0.4,2.3-2.1,2.8-2.2,2.8c-0.4,0.1-0.6,0.5-0.5,0.8c0.1,0.3,0.4,0.5,0.7,0.5c0.1,0,0.1,0,0.2,0
			c0.1,0,2.6-0.7,3.2-3.9c0.1-0.4,0.1-0.9,0-1.2c0.5-0.5,2.4-1.9,4.8-0.8c0.1,0,0.2,0.1,0.3,0.1c0,0,0.1,0,0.1,0.1
			c0.7,0.4,2.4,1.6,2.5,4c0.1,1.9-0.5,2.8-0.9,3.2c-0.2,0.2-0.3,0.5-0.3,0.8c0,0.3,0.1,0.6,0.3,0.8c0.5,0.5,2,2.7,1.3,4.6
			c-0.5,1.3-1.2,2.1-2,2.3c-0.8,0.2-1.8-0.3-2.9-1.3c-0.3-0.3-0.7-0.3-1,0c-0.3,0.3-0.3,0.7,0,1c1,1,2,1.5,2.7,1.7
			c0.2,0.6,0.5,2,0,3.5c-0.6,1.9-3.5,2.6-3.5,2.6l-0.4,0.1l-0.1,0.4c-0.7,3.8-1.2,4-2.9,5c-0.8,0.4-1.8,0.6-3,0.5
			c-0.1-1.9-1.8-4-3.6-4.6c-1.1-0.3-2.1,0-2.8,1c-0.6,0.9-0.6,2,0.2,2.8c0.9,1,2.6,1.7,4.5,2c-0.3,0.6-0.8,1.3-1.5,1.9
			c-0.9,0.8-2.5,1.6-4.7,1.2c-4.1-0.8-5.3-4.4-5.4-4.5c0-0.1-0.1-0.2-0.2-0.3V16.8C76.5,16.5,76.8,12.9,80.5,12.2z M88.6,61.6
			c-1.6-0.3-3.1-0.8-3.7-1.6c-0.4-0.4-0.4-0.7-0.1-1.1c0.2-0.3,0.5-0.5,0.8-0.5c0.1,0,0.3,0,0.4,0.1C87.1,58.8,88.3,60.4,88.6,61.6z
			 M66.9,63.1c-0.3-0.3-0.3-0.5-0.2-0.7c0.1-0.2,0.2-0.5,0.7-0.6c0.1,0,0.2,0,0.4,0c0.8,0,2,0.5,2.9,1.6c0.2,0.2,0.3,0.5,0.5,0.8
			C69.2,64.2,67.5,63.7,66.9,63.1z M58.9,54.8c0.8-0.8,1.2-3,1.4-6.8c0.1,0.2,0.2,0.5,0.3,0.7c1.1,2.5,2.8,6.4,2.2,9.9
			c-0.4,2.3-1.9,2.4-5.1,2.3c-0.8,0-1.6-0.1-2.5,0c-1.8,0-3.8,0.3-5.7,0.9C53.7,59.3,57.9,55.9,58.9,54.8z M63,18.9L63,18.9
			c0,0,0-3.4,1.9-5.2c0.9-0.8,2.1-1.2,3.6-1.1c1.6,0.1,2.8,0.7,3.5,1.7c1.6,2.1,1,6,0.6,7.9c-0.3,1.7-1.8,3.9-3.6,4.5
			c-1.3,0.4-2.6-0.1-3.9-1.5C63,22.8,63,18.9,63,18.9z"/>
		<path class="st1" d="M84.6,38.5c-1.6-1.5-4.1-1.3-4.2-1.3c-0.4,0-0.7,0.4-0.6,0.7c0,0.4,0.4,0.7,0.7,0.6c0,0,2-0.1,3.1,1
			c0.6,0.5,0.8,1.3,0.8,2.2c0,1.3-0.6,2.2-1.7,2.7c-1.2,0.5-2.4,0.2-2.6,0c-0.2-0.3-0.6-0.4-0.9-0.3c-0.3,0.2-0.5,0.6-0.3,0.9
			c0.3,0.7,1.3,1,2.4,1c0.4,0,0.8,0,1.1-0.1c0.4,0.7,1.3,2.1,3.4,2.3c0.2,0,0.4,0,0.5,0c0.6,0,1.2-0.1,1.7-0.4l2.2,2.3
			c-0.2,0.4-0.4,0.8-0.4,1.3l-4.1,0.7c-0.1,0-0.3,0.1-0.3,0.2c-0.5-1-1.5-1.7-2.7-1.7c-1.6,0-3,1.3-3,3c0,1.6,1.3,3,3,3
			c1.6,0,3-1.3,3-3c0,0,0-0.1,0-0.1c0.1,0,0.1,0,0.2,0c0,0,0.1,0,0.1,0l4.2-0.7c0.4,0.9,1.4,1.6,2.5,1.6c1.5,0,2.7-1.2,2.7-2.7
			c0-1.5-1.2-2.7-2.7-2.7c-0.5,0-0.9,0.1-1.3,0.3l-2.1-2.2c0.6-0.6,1-1.3,1.2-1.8c0.1-0.4-0.1-0.8-0.4-0.9c-0.4-0.1-0.8,0.1-0.9,0.4
			c0,0.1-0.9,2.4-3.1,2.1c-1.4-0.2-2-1-2.2-1.4c1.1-0.6,1.8-1.7,2-3h7.2c0.3,1.2,1.4,2.2,2.8,2.2c1.6,0,2.8-1.3,2.8-2.8
			c0-1.6-1.3-2.8-2.8-2.8c-1.3,0-2.4,0.9-2.8,2.2h-7.2C85.7,40,85.3,39.1,84.6,38.5z M82.7,55.2c-0.9,0-1.6-0.7-1.6-1.6
			c0-0.9,0.7-1.6,1.6-1.6c0.9,0,1.6,0.7,1.6,1.6C84.3,54.5,83.6,55.2,82.7,55.2z M92.6,50.3c0.8,0,1.4,0.6,1.4,1.4
			c0,0.8-0.6,1.4-1.4,1.4c-0.8,0-1.4-0.6-1.4-1.4C91.2,50.9,91.8,50.3,92.6,50.3z M95.8,40.2c0.8,0,1.5,0.7,1.5,1.5
			s-0.7,1.5-1.5,1.5s-1.5-0.7-1.5-1.5S95,40.2,95.8,40.2z"/>
		<path class="st1" d="M78.7,28.7c0,0,0.9,0,1.9,1.2c-1,1-1.3,2.3-1.3,2.4c-0.1,0.4,0.1,0.7,0.5,0.8c0.4,0.1,0.7-0.1,0.8-0.5
			c0,0,0.4-1.7,1.6-2.2c0.7-0.3,1.7-0.2,2.8,0.4c0.8,0.4,1,1.4,1.1,1.9c0.1,1.1-0.3,2.1-0.7,2.4c-0.3,0.2-0.4,0.7-0.2,1
			c0.1,0.2,0.3,0.3,0.6,0.3c0.1,0,0.3,0,0.4-0.1c0.8-0.6,1.4-2.1,1.3-3.6c-0.1-0.8-0.3-1.5-0.7-2l2.6-2.9c0.3,0.2,0.7,0.3,1.2,0.3
			c1.4,0,2.5-1.1,2.5-2.5c0-1.4-1.1-2.5-2.5-2.5c-0.7,0-1.4,0.3-1.9,0.9c0,0-0.1,0-0.1-0.1l-4-2.1c0-0.2,0.1-0.4,0.1-0.6
			c0-1.6-1.3-2.9-2.9-2.9c-1.6,0-2.9,1.3-2.9,2.9c0,1.6,1.3,2.9,2.9,2.9c0.9,0,1.7-0.4,2.2-1.1l4,2c0.1,0,0.1,0,0.2,0.1
			c0,0.1,0,0.3,0,0.4c0,0.5,0.1,0.9,0.3,1.2l-2.6,2.9c0,0-0.1-0.1-0.1-0.1c-1.5-0.8-2.8-0.9-4-0.4c-1.5-1.9-3-1.8-3.1-1.8L78.7,28.7
			L78.7,28.7z M81.8,22.6c-0.8,0-1.5-0.7-1.5-1.5s0.7-1.5,1.5-1.5c0.8,0,1.5,0.7,1.5,1.5S82.7,22.6,81.8,22.6z M90.6,24.4
			c0.6,0,1.1,0.5,1.1,1.1c0,0.6-0.5,1.1-1.1,1.1s-1.1-0.5-1.1-1.1C89.5,24.9,90,24.4,90.6,24.4z"/>
	</g>
	<g id="shape_00000147184192176899977640000013662493796921821578_">
		<g>
			<path class="st2" d="M52.4,76.1c-1.2,0-2,0-2.1,0H11.1c-0.4,0-0.8-0.4-0.8-0.8s0.4-0.8,0.8-0.8h37.6c-3.3-1.4-5.1-3.3-5.6-5.8
				c-0.2-1.4,0.1-2.7,1.1-3.9c0.1-0.1,0.2-0.3,0.4-0.4c-1.1,0.4-2,0.6-2.7,0.6c-0.2,0-0.3,0-0.5,0c-2.7-0.4-3.9-2.1-3.9-3.6
				c0-1.3,0.8-2.4,2-2.8c0.2-0.6,0.6-1.4,1.4-1.9c0.5-0.3,1.1-0.5,1.7-0.5c0.3,0,0.6,0,1,0.1c0.9,0.2,1.5,0.4,1.8,0.6l0.1,0.1
				c0.1-0.1,0.3-0.3,0.5-0.5l0.4-0.4c0.8-0.8,2-1.7,3.1-2.7c1.4-1.2,2.9-2.4,3.4-3.1c0.2-0.4,0.2-2.7,0.2-4.4c0-5.6,0.2-10,2.1-11.5
				c1.6-1.2,3.9-1.8,5.9-2.4c1.3-0.3,2.8-0.7,3.2-1.1c0.7-0.7,0.6-3.2,0.4-4.2c-0.2-0.1-0.3-0.3-0.5-0.5c-2.6-2.8-2.6-7.1-2.6-7.3
				c0-0.2,0-4.1,2.4-6.3c1.1-1,2.5-1.5,4.1-1.5c0.2,0,0.5,0,0.7,0c2,0.2,3.6,0.9,4.6,2.2c2.1,2.7,1.3,7,0.9,9.1
				c-0.4,2.2-2.2,4.9-4.7,5.7c-0.4,0.1-0.9,0.2-1.3,0.2c-0.6,0-1.3-0.1-1.9-0.4c0.1,1.4-0.1,3.2-1,4.1c-0.7,0.7-2.1,1.1-3.9,1.6
				c-1.9,0.5-4,1.1-5.4,2.1c-1.4,1.1-1.4,6.6-1.4,10.2c0,3.1,0,4.6-0.5,5.3c-0.6,0.9-2.1,2.1-3.7,3.4c-1.1,0.9-2.2,1.8-3,2.5
				l-0.4,0.4c-0.6,0.6-1,1-1.6,1c-0.2,0-0.5-0.1-0.9-0.2c-0.3-0.1-0.8-0.3-1.5-0.5c-0.2,0-0.4-0.1-0.6-0.1c-0.3,0-0.6,0.1-0.8,0.2
				c-0.7,0.4-0.9,1.4-0.9,1.4l-0.1,0.6L40.3,60c-0.8,0.1-1.2,0.7-1.2,1.3c0,0.8,0.7,1.8,2.5,2c0.1,0,0.2,0,0.3,0
				c4,0,14.1-7.6,15.8-9.5c0.4-0.4,1.2-2.3,1.2-11.3c0-0.5,0.4-0.8,0.8-0.9c0,0,0,0,0,0c0.5,0,0.9,0.3,0.9,0.7
				c0.1,0.9,0.4,2.8,0.6,3.8c0.1,0.3,0.4,1.1,0.8,1.9c1.1,2.5,3,6.8,2.3,10.8c-0.6,3.2-3,3.5-5.2,3.5c-0.5,0-0.9,0-1.4,0
				c-0.6,0-1.1,0-1.7,0c-0.2,0-0.4,0-0.7,0c-3.5,0.1-7.9,1.2-9.7,3.4c-0.7,0.8-0.9,1.6-0.7,2.6c0.9,5,10.1,6,10.5,6
				c1.5-0.1,3-0.2,4.3-0.4c3.5-0.5,6.4-1.3,8.3-2.4c-3.4-2.2-5-4.6-5.1-4.7c-0.3-0.4-0.2-0.9,0.2-1.1c0.1-0.1,0.3-0.1,0.5-0.1
				c0.3,0,0.5,0.1,0.7,0.3c0,0,1.7,2.4,5.2,4.6c0.6-0.5,1-1.1,1.3-1.7c0.6-1.2,0.8-2.3,0.6-3.4c-0.3,0-0.5,0-0.8,0
				c-2,0-3.8-0.6-4.7-1.5c-0.6-0.6-0.8-1.4-0.6-2.2c0.2-0.9,0.9-1.5,1.8-1.7c0.2,0,0.4-0.1,0.7-0.1c1.4,0,3,0.8,4,2.1
				c0.3,0.4,0.6,0.9,0.8,1.4l0.1,0c0.9-0.3,2.1-0.8,2.4-1.9l0-45c0.1-1.8,1.3-5.3,5.3-6c0.5-0.1,0.9-0.1,1.4-0.1
				c3.4,0,6,2.4,6.9,4.7c0.3-0.1,0.8-0.1,1.4-0.1c1.5,0,3.5,0.4,4.9,2.1c1.7,2.1,2,4.3,2,5.4c1.3,0.5,3.5,1.6,4.2,3.6
				c0.6,1.8,0.4,4,0.2,5.2c1.1,0.7,2.9,2.3,3,5.1c0.1,2.1-0.5,3.4-1.1,4.1c0.9,1.2,2.2,3.6,1.3,5.9c-0.7,1.7-1.7,2.8-3,3.2
				c0.2,0.9,0.3,2.3-0.2,3.8c-0.7,2.1-3,3.1-4.1,3.5c-0.7,3.6-1.4,4.3-3.6,5.5c-0.9,0.5-2,0.7-3.5,0.7c-0.1,0-0.3,0-0.4,0
				c-0.4,1-1.2,2-2.1,2.8c-0.9,0.8-2.4,1.7-4.5,1.7c-0.5,0-0.9,0-1.4-0.1c-3.3-0.6-5.1-2.8-5.9-4.1c-0.6,0.8-1.6,1.4-2.9,1.8
				c0,0-0.1,0-0.1,0c0.2,1.4-0.1,2.8-0.8,4.3c-0.3,0.7-0.7,1.3-1.3,1.8c2.1,1.1,4.4,1.9,6.8,2.3c2.4,0.4,63,0.6,175.5,0.6
				c78.4,0,150.8-0.1,150.9-0.1c0.5,0,0.8,0.4,0.8,0.8c0,0.4-0.4,0.8-0.8,0.8c-0.8,0-275.5,0.1-293.8,0.1c-13.3,0-29.8-0.1-32.9-0.7
				c-2.8-0.5-5.4-1.4-7.9-2.8C64.9,75.7,56.9,76.1,52.4,76.1z M76.6,61.2c0.1,0.1,0.2,0.2,0.2,0.3c0,0.2,1.2,3.7,5.3,4.4
				c0.4,0.1,0.7,0.1,1.1,0.1c1.6,0,2.8-0.7,3.5-1.3c0.8-0.6,1.2-1.3,1.4-1.7c-1.9-0.3-3.5-1.1-4.4-2c-0.8-0.9-0.9-2-0.2-3
				c0.5-0.7,1.2-1.2,2.1-1.2c0.3,0,0.6,0,0.9,0.1c1.8,0.5,3.5,2.7,3.7,4.6c0.1,0,0.1,0,0.2,0c1.1,0,2-0.2,2.6-0.5
				c1.7-0.9,2.1-1.2,2.8-4.9l0.1-0.5l0.5-0.1c0,0,2.8-0.7,3.4-2.6c0.4-1.4,0.2-2.6,0-3.3C98.9,49.4,98,48.9,97,48
				c-0.2-0.2-0.2-0.4-0.2-0.6c0-0.2,0.1-0.4,0.2-0.6c0.2-0.2,0.4-0.2,0.6-0.2c0.2,0,0.4,0.1,0.6,0.2c0.9,0.9,1.8,1.4,2.5,1.4
				c0.1,0,0.2,0,0.3,0c0.8-0.2,1.5-0.9,1.9-2.2c0.7-1.9-0.8-4-1.2-4.5c-0.2-0.2-0.4-0.6-0.3-0.9c0-0.3,0.1-0.6,0.4-0.9
				c0.4-0.3,1-1.2,0.9-3.1c-0.1-2.3-1.7-3.5-2.4-3.9l-0.1-0.1c0,0,0,0,0,0c-0.1,0-0.2,0-0.2-0.1c-0.6-0.3-1.2-0.4-1.8-0.4
				c-1.4,0-2.4,0.8-2.9,1.1c0.1,0.4,0,0.8,0,1.2c-0.6,3.3-3.2,4-3.3,4c-0.1,0-0.1,0-0.2,0c-0.4,0-0.7-0.3-0.8-0.6
				c-0.1-0.4,0.2-0.9,0.6-1c0.1,0,1.7-0.5,2.1-2.7c0.4-2.1-2.2-2.9-2.3-3c-0.4-0.1-0.7-0.6-0.5-1c0.1-0.3,0.4-0.6,0.8-0.6
				c0.1,0,0.2,0,0.2,0c0.9,0.3,2.1,0.9,2.8,2c0.6-0.5,1.9-1.2,3.5-1.2c0.5,0,1.1,0.1,1.6,0.2c0.2-1,0.3-2.7-0.2-4
				c-0.6-1.5-2.8-2.5-3.5-2.7c-0.5-0.2-0.8-0.7-0.8-1.2c0-0.7-0.1-2.7-1.6-4.6c-1-1.2-2.5-1.5-3.6-1.5c-0.6,0-1.2,0.1-1.5,0.1
				c-0.1,0-0.2,0-0.2,0c-0.5,0-1-0.3-1.1-0.9c-0.5-1.6-2.5-3.9-5.5-3.9c-0.4,0-0.7,0-1.1,0.1c-3.6,0.7-3.9,4.1-3.9,4.5V61.2z
				 M67.6,61.9c-0.1,0-0.2,0-0.3,0c-0.4,0.1-0.5,0.3-0.6,0.5c0,0.1,0,0.3,0.2,0.6c0.6,0.6,2.1,1,3.6,1c0.1,0,0.2,0,0.3,0
				c-0.1-0.2-0.2-0.4-0.4-0.6C69.5,62.3,68.4,61.9,67.6,61.9z M85.5,58.5c-0.3,0-0.5,0.1-0.7,0.4c-0.2,0.4-0.2,0.6,0.1,1
				c0.6,0.6,1.9,1.2,3.5,1.5c-0.3-1.2-1.5-2.5-2.5-2.9C85.8,58.6,85.7,58.5,85.5,58.5z M60.4,48.6c-0.2,3.4-0.7,5.5-1.4,6.3
				c-1,1.1-4.8,4.2-8.6,6.5c1.6-0.4,3.2-0.6,4.9-0.7c0.2,0,0.5,0,0.7,0c0.6,0,1.2,0,1.8,0c0.5,0,1,0,1.4,0c2.2,0,3.3-0.3,3.6-2.2
				c0.6-3.5-1-7.3-2.2-9.8L60.4,48.6z M68,12.7c-1.2,0-2.2,0.4-3,1.1c-1.9,1.7-1.9,5.1-1.9,5.1c0,0,0,3.8,2.2,6.2c1,1,2,1.6,2.9,1.6
				c0.3,0,0.6,0,0.8-0.1c1.8-0.5,3.2-2.7,3.5-4.4c0.3-1.8,1-5.7-0.6-7.8c-0.7-0.9-1.8-1.5-3.4-1.6C68.4,12.7,68.2,12.7,68,12.7z"/>
			<path class="st2" d="M81.7,10.7c3.5,0,6,2.6,6.8,4.7c0.4-0.1,0.9-0.1,1.5-0.1c1.5,0,3.4,0.4,4.8,2c1.7,2.2,1.9,4.4,1.9,5.4
				c1.2,0.4,3.5,1.6,4.2,3.6c0.7,1.9,0.4,4.2,0.2,5.2c1,0.6,2.9,2.1,3,5c0.1,2.2-0.6,3.4-1.2,4.1c0.8,1,2.3,3.5,1.4,5.9
				c-0.7,1.7-1.7,2.8-3,3.1c0,0,0,0,0,0c0.2,0.9,0.4,2.3-0.1,3.8c-0.7,2.1-3.1,3.1-4,3.4c-0.7,3.7-1.4,4.4-3.5,5.5
				c-0.9,0.5-2.1,0.7-3.4,0.7c-0.2,0-0.3,0-0.5,0c-0.3,0.9-1.1,2-2.1,2.8c-1,0.8-2.4,1.7-4.4,1.7c-0.4,0-0.9,0-1.3-0.1
				c-3.3-0.6-5.1-2.8-5.9-4.2c-0.6,0.9-1.6,1.5-2.9,1.9c-0.1,0-0.2,0-0.2,0.1c0.2,1.2,0,2.6-0.8,4.4c-0.3,0.7-0.8,1.4-1.4,1.9
				c1.9,1,4.2,1.9,7,2.4c2.9,0.5,91.4,0.6,175.5,0.6c77.2,0,150.7-0.1,150.9-0.1c0,0,0,0,0,0c0.4,0,0.7,0.3,0.7,0.7
				c0,0.4-0.3,0.7-0.7,0.7c-1,0-281.2,0.1-293.8,0.1c-14.3,0-29.9-0.1-32.9-0.7c-3.2-0.6-5.8-1.6-7.9-2.8c-4.6,3.1-13,3.5-17,3.5
				c-1.2,0-2,0-2.1,0H11.1c-0.4,0-0.7-0.3-0.7-0.7c0-0.4,0.3-0.7,0.7-0.7h38.3c-2.7-1-5.5-2.8-6.1-5.9c-0.2-1.4,0.1-2.6,1-3.8
				c0.2-0.3,0.5-0.6,0.8-0.8c-1.2,0.5-2.3,0.8-3.2,0.8c-0.2,0-0.3,0-0.5,0c-2.6-0.3-3.8-2-3.8-3.5c0-1.3,0.8-2.4,2-2.7
				c0.2-0.5,0.6-1.3,1.4-1.9c0.5-0.3,1.1-0.5,1.7-0.5c0.3,0,0.6,0,0.9,0.1c0.9,0.2,1.4,0.4,1.8,0.6c0.1,0,0.2,0.1,0.2,0.1
				c0.1-0.1,0.3-0.3,0.6-0.5c0.1-0.1,0.2-0.2,0.4-0.4c0.8-0.8,1.9-1.7,3.1-2.6c1.5-1.2,3-2.4,3.4-3.1c0.2-0.4,0.2-2.6,0.2-4.4
				c0-5.6,0.2-10,2-11.4c1.6-1.2,3.9-1.8,5.9-2.3c1.4-0.4,2.8-0.7,3.2-1.2c0.7-0.8,0.6-3.2,0.5-4.3c0,0,0,0,0,0
				c-0.2-0.2-0.4-0.3-0.6-0.5c-2.6-2.8-2.6-7-2.6-7.2c0-0.2,0-4,2.4-6.2c1.1-1,2.4-1.5,4-1.5c0.2,0,0.5,0,0.7,0
				c2,0.2,3.5,0.9,4.5,2.2c2,2.6,1.3,6.9,0.9,9c-0.4,2.1-2.1,4.8-4.6,5.6c-0.4,0.1-0.8,0.2-1.3,0.2c-0.6,0-1.3-0.1-2-0.5
				c0.1,1.3,0,3.3-0.9,4.3c-0.7,0.7-2.1,1.1-3.9,1.6c-1.9,0.5-4,1.1-5.4,2.1c-1.4,1.1-1.5,6.6-1.5,10.3c0,3.1,0,4.6-0.5,5.2
				c-0.6,0.9-2.1,2.1-3.7,3.4c-1.1,0.9-2.2,1.8-3,2.6c-0.1,0.1-0.3,0.3-0.4,0.4c-0.6,0.6-1,1-1.5,1c-0.2,0-0.5-0.1-0.8-0.2
				c-0.3-0.1-0.8-0.3-1.6-0.5c-0.2-0.1-0.4-0.1-0.6-0.1c-0.3,0-0.6,0.1-0.9,0.3c-0.7,0.5-0.9,1.4-0.9,1.4l-0.1,0.5l-0.5,0.1
				c-0.9,0.1-1.3,0.8-1.3,1.4c0,0.8,0.7,1.9,2.6,2.1c0.1,0,0.2,0,0.3,0c4,0,14.2-7.6,15.9-9.5c0.5-0.5,1.2-2.7,1.2-11.4
				c0-0.4,0.3-0.7,0.7-0.7c0,0,0,0,0,0c0.4,0,0.7,0.3,0.7,0.6c0.1,0.9,0.4,2.8,0.6,3.8c0.1,0.4,0.4,1.1,0.8,2
				c1.1,2.5,3,6.8,2.3,10.7c-0.6,3-2.7,3.4-5.1,3.4c-0.5,0-0.9,0-1.4,0c-0.6,0-1.2,0-1.8,0c-0.2,0-0.4,0-0.7,0
				c-3.6,0.1-8,1.2-9.8,3.5c-0.7,0.8-0.9,1.7-0.8,2.7c0.9,5,9.8,6.1,10.6,6.1c1.3-0.1,2.8-0.2,4.4-0.4c2.8-0.4,6.2-1.1,8.6-2.5
				c-3.4-2.2-5.1-4.6-5.2-4.7c-0.2-0.3-0.1-0.7,0.2-1c0.1-0.1,0.3-0.1,0.4-0.1c0.2,0,0.4,0.1,0.6,0.3c0,0,1.8,2.5,5.3,4.7
				c0.6-0.5,1.1-1.1,1.4-1.8c0.7-1.4,0.8-2.6,0.6-3.6c-0.3,0-0.6,0-0.9,0c-1.9,0-3.7-0.5-4.6-1.4c-0.6-0.6-0.8-1.3-0.6-2
				c0.2-0.8,0.8-1.4,1.7-1.6c0.2,0,0.4-0.1,0.6-0.1c1.4,0,2.9,0.8,3.9,2.1c0.3,0.4,0.6,0.8,0.8,1.4c0.1,0,0.2,0,0.2-0.1
				c0.9-0.3,2.1-0.8,2.5-2V16.7l0,0c0.1-1.7,1.3-5.2,5.2-5.9C80.8,10.7,81.2,10.7,81.7,10.7 M83.2,66.2c1.6,0,2.8-0.7,3.6-1.3
				c0.7-0.6,1.2-1.3,1.5-1.9c-1.8-0.3-3.6-1-4.5-2c-0.8-0.9-0.9-1.9-0.2-2.8c0.5-0.7,1.2-1.1,2-1.1c0.3,0,0.5,0,0.8,0.1
				c1.8,0.5,3.5,2.7,3.6,4.6c0.1,0,0.2,0,0.3,0c1,0,2-0.2,2.7-0.5c1.8-1,2.2-1.2,2.9-5l0.1-0.4l0.4-0.1c0,0,2.9-0.7,3.5-2.6
				c0.5-1.5,0.2-2.9,0-3.5c-0.8-0.2-1.7-0.7-2.7-1.7c-0.3-0.3-0.3-0.7,0-1c0.1-0.1,0.3-0.2,0.5-0.2c0.2,0,0.4,0.1,0.5,0.2
				c0.9,0.9,1.8,1.4,2.6,1.4c0.1,0,0.2,0,0.4,0c0.8-0.2,1.5-1,2-2.3c0.7-2-0.8-4.1-1.3-4.6c-0.2-0.2-0.3-0.5-0.3-0.8
				c0-0.3,0.1-0.6,0.3-0.8c0.4-0.4,1-1.2,0.9-3.2c-0.1-2.3-1.8-3.6-2.5-4c0,0-0.1,0-0.1-0.1c0,0,0,0,0,0c-0.1,0-0.2,0-0.3-0.1
				c-0.7-0.3-1.3-0.4-1.8-0.4c-1.5,0-2.6,0.9-3,1.2c0.1,0.4,0.1,0.8,0,1.2c-0.6,3.2-3.1,3.9-3.2,3.9c-0.1,0-0.1,0-0.2,0
				c-0.3,0-0.6-0.2-0.7-0.5c-0.1-0.4,0.1-0.7,0.5-0.8c0.1,0,1.7-0.5,2.2-2.8c0.4-2.2-2.3-3.1-2.4-3.1c-0.4-0.1-0.6-0.5-0.4-0.9
				c0.1-0.3,0.4-0.5,0.7-0.5c0.1,0,0.1,0,0.2,0c0.8,0.3,2.1,0.9,2.8,2.1c0.8-0.6,2.1-1.2,3.5-1.2c0.6,0,1.1,0.1,1.7,0.3
				c0.2-0.9,0.4-2.8-0.2-4.2C99,25.2,96.7,24.2,96,24c-0.5-0.2-0.8-0.6-0.7-1.1c0-0.8-0.1-2.7-1.6-4.7c-1-1.2-2.5-1.5-3.7-1.5
				c-0.6,0-1.2,0.1-1.5,0.1c-0.1,0-0.1,0-0.2,0c-0.5,0-0.9-0.3-1-0.8c-0.5-1.5-2.5-4-5.6-4c-0.4,0-0.7,0-1.1,0.1
				c-3.7,0.7-4,4.3-4,4.6v44.5c0.1,0.1,0.2,0.2,0.2,0.3c0.1,0.2,1.3,3.8,5.4,4.5C82.5,66.2,82.8,66.2,83.2,66.2 M68.3,26.7
				c0.3,0,0.6,0,0.9-0.1c1.8-0.5,3.3-2.7,3.6-4.5c0.3-1.9,1-5.7-0.6-7.9c-0.8-1-1.9-1.5-3.5-1.7c-0.2,0-0.4,0-0.6,0
				c-1.2,0-2.3,0.4-3.1,1.1C63,15.5,63,18.8,63,18.9v0c0,0,0,3.9,2.2,6.2C66.2,26.2,67.2,26.7,68.3,26.7 M49.5,61.8
				c1.9-0.6,3.9-0.9,5.7-0.9c0.2,0,0.5,0,0.7,0c0.6,0,1.2,0,1.8,0c0.5,0,1,0,1.4,0c2.3,0,3.4-0.3,3.7-2.3c0.7-3.5-1.1-7.3-2.2-9.9
				c-0.1-0.3-0.2-0.5-0.3-0.7c-0.2,3.7-0.7,5.9-1.4,6.8C57.9,55.9,53.7,59.3,49.5,61.8 M88.6,61.6c-0.2-1.2-1.5-2.8-2.6-3.1
				c-0.1,0-0.3-0.1-0.4-0.1c-0.3,0-0.6,0.2-0.8,0.5c-0.3,0.4-0.2,0.7,0.1,1.1C85.5,60.8,87,61.4,88.6,61.6 M70.5,64.1
				c0.2,0,0.3,0,0.5,0c-0.2-0.3-0.3-0.6-0.5-0.8c-0.8-1.1-2-1.6-2.8-1.6c-0.1,0-0.2,0-0.4,0c-0.5,0.1-0.6,0.4-0.7,0.6
				c0,0.2-0.1,0.4,0.2,0.7C67.5,63.7,68.9,64.1,70.5,64.1 M81.7,10.4C81.7,10.4,81.7,10.4,81.7,10.4c-0.5,0-0.9,0-1.4,0.1
				c-4.1,0.7-5.3,4.3-5.4,6.1l0,45.1c-0.3,1-1.4,1.6-2.3,1.8c0,0,0,0,0,0c-0.2-0.5-0.5-0.9-0.8-1.3c-1.1-1.3-2.7-2.2-4.1-2.2
				c-0.2,0-0.5,0-0.7,0.1c-1,0.2-1.7,0.8-1.9,1.8c-0.2,0.8,0,1.6,0.7,2.3c0.9,0.9,2.8,1.5,4.8,1.5c0.2,0,0.5,0,0.7,0
				c0.1,1-0.1,2.1-0.6,3.2c-0.3,0.6-0.7,1.1-1.2,1.6C66,68.3,64.3,66,64.3,66c-0.2-0.2-0.5-0.4-0.8-0.4c-0.2,0-0.4,0.1-0.5,0.2
				c-0.4,0.3-0.5,0.9-0.2,1.3c0.1,0.1,1.7,2.4,4.9,4.6c-1.9,1-4.7,1.8-8.1,2.3c-1.4,0.2-2.8,0.3-4.3,0.4c-0.4,0-9.5-1-10.3-5.9
				c-0.2-0.9,0.1-1.7,0.7-2.5c1.8-2.2,6.2-3.3,9.6-3.4c0.2,0,0.4,0,0.6,0c0.6,0,1.2,0,1.7,0c0.5,0,1,0,1.4,0c2.3,0,4.7-0.3,5.4-3.6
				c0.8-4-1.2-8.3-2.3-10.8c-0.4-0.8-0.7-1.6-0.8-1.9c-0.2-1-0.5-2.9-0.6-3.8c-0.1-0.5-0.5-0.9-1-0.9h0l-0.1,0c-0.5,0-0.9,0.5-0.9,1
				c0,8.9-0.8,10.8-1.1,11.2C56,55.5,45.8,63.2,42,63.2c-0.1,0-0.2,0-0.3,0c-1.8-0.2-2.4-1.2-2.4-1.9c0-0.5,0.3-1.1,1.1-1.2l0.5-0.1
				l0.2,0l0-0.2l0.1-0.5c0,0,0.2-0.9,0.8-1.3c0.2-0.1,0.5-0.2,0.8-0.2c0.2,0,0.4,0,0.6,0.1c0.8,0.2,1.2,0.4,1.5,0.5
				c0.4,0.2,0.7,0.2,0.9,0.2c0.6,0,1-0.4,1.6-1l0.4-0.4c0.7-0.7,1.9-1.6,2.9-2.5c1.6-1.3,3.1-2.6,3.7-3.5c0.5-0.7,0.5-2.1,0.5-5.3
				c0-3.4,0-9.1,1.4-10.1c1.3-1,3.4-1.6,5.3-2.1c1.8-0.5,3.3-0.9,4-1.6c0.9-0.9,1-2.6,1-4c0.6,0.2,1.2,0.3,1.7,0.3
				c0.4,0,0.9-0.1,1.3-0.2c2.6-0.8,4.4-3.5,4.7-5.7c0.4-2.1,1.1-6.4-0.9-9.2c-1-1.3-2.6-2.1-4.7-2.3c-0.2,0-0.5,0-0.7,0
				c-1.7,0-3.1,0.5-4.2,1.5c-2.5,2.3-2.5,6.2-2.5,6.4c0,0.2,0,4.5,2.7,7.4c0.2,0.2,0.3,0.3,0.5,0.5c0.2,1.3,0.2,3.4-0.4,4
				c-0.3,0.4-1.8,0.8-3.1,1.1c-2,0.5-4.4,1.2-6,2.4c-1.9,1.5-2.1,5.9-2.1,11.6c0,1.5,0,4-0.2,4.3c-0.4,0.6-1.9,1.8-3.3,3
				c-1.1,0.9-2.3,1.9-3.1,2.7L46,56.2c-0.2,0.2-0.3,0.3-0.4,0.4c0,0,0,0-0.1,0c-0.4-0.1-0.9-0.4-1.8-0.6C43.3,56,43,56,42.7,56
				c-0.7,0-1.3,0.2-1.8,0.5c-0.8,0.5-1.2,1.3-1.4,1.9c-1.3,0.4-2.1,1.6-2.1,2.9c0,1.6,1.3,3.4,4,3.8c0.2,0,0.3,0,0.5,0
				c0.6,0,1.4-0.1,2.3-0.4c0,0,0,0,0,0.1c-1,1.2-1.3,2.5-1.1,4c0.4,2.3,2.2,4.3,5.1,5.6h-37c-0.5,0-0.9,0.4-0.9,0.9s0.4,0.9,0.9,0.9
				h39.2c0.1,0,0.9,0,2.1,0c4.4,0,12.5-0.5,17-3.5c2.4,1.3,5,2.3,7.8,2.8c2.5,0.4,13.6,0.7,32.9,0.7c18.4,0,293-0.1,293.8-0.1
				c0.5,0,0.9-0.4,0.9-0.9c0-0.5-0.4-0.9-0.9-0.9c-0.1,0-73.3,0.1-151,0.1c-112.5,0-173.1-0.2-175.5-0.6c-2.3-0.4-4.5-1.2-6.6-2.2
				c0.5-0.5,0.9-1.1,1.2-1.8c0.7-1.5,1-2.9,0.8-4.3c0,0,0,0,0,0c1.2-0.3,2.2-0.9,2.8-1.7c0.8,1.4,2.6,3.4,5.9,4
				c0.5,0.1,0.9,0.1,1.4,0.1c2.1,0,3.7-0.9,4.6-1.7c0.9-0.8,1.7-1.8,2.1-2.8c0.1,0,0.2,0,0.3,0c1.4,0,2.6-0.3,3.5-0.7
				c2.2-1.2,2.9-2,3.6-5.6c1.1-0.4,3.4-1.4,4.1-3.5c0.5-1.5,0.4-2.8,0.2-3.7c1.3-0.4,2.3-1.5,3-3.2c0.9-2.3-0.3-4.7-1.3-6
				c0.6-0.7,1.2-2,1.1-4.1c-0.1-2.9-2.1-4.5-3-5.1c0.2-1.2,0.4-3.4-0.2-5.2c-0.7-2-2.9-3.1-4.2-3.7c0-1.2-0.3-3.3-2-5.4
				c-1.4-1.8-3.5-2.1-5-2.1c-0.5,0-1,0-1.3,0.1C87.7,12.8,85,10.4,81.7,10.4L81.7,10.4L81.7,10.4z M76.8,61.2V16.8
				c0-0.4,0.3-3.7,3.8-4.4c0.4-0.1,0.7-0.1,1.1-0.1c2.9,0,4.9,2.3,5.4,3.8c0.2,0.6,0.7,0.9,1.3,0.9c0.1,0,0.2,0,0.3,0
				c0.3-0.1,0.8-0.1,1.4-0.1c1.1,0,2.6,0.2,3.5,1.4c1.5,1.9,1.6,3.8,1.6,4.5c0,0.6,0.3,1.1,0.9,1.3c0.7,0.2,2.9,1.2,3.4,2.7
				c0.4,1.2,0.3,2.8,0.2,3.8c-0.5-0.1-1-0.2-1.5-0.2c-1.6,0-2.8,0.6-3.5,1.1c-0.8-1-1.9-1.7-2.8-1.9c-0.1,0-0.2,0-0.3,0
				c-0.4,0-0.8,0.3-0.9,0.7c-0.2,0.5,0.1,1,0.6,1.2c0.1,0,2.5,0.8,2.2,2.8c-0.4,2.2-1.9,2.6-2,2.6c-0.5,0.1-0.8,0.6-0.7,1.1
				c0.1,0.4,0.5,0.7,0.9,0.7c0.1,0,0.2,0,0.2,0c0.1,0,2.8-0.7,3.4-4.1c0.1-0.4,0.1-0.8,0-1.2c0.4-0.4,1.4-1,2.7-1
				c0.6,0,1.2,0.1,1.7,0.4c0.1,0,0.2,0.1,0.3,0.1c0,0,0,0,0.1,0c0.7,0.4,2.3,1.5,2.4,3.8c0.1,1.8-0.5,2.7-0.8,3
				c-0.3,0.2-0.4,0.6-0.4,0.9c0,0.4,0.1,0.7,0.4,1c0.4,0.5,1.9,2.5,1.2,4.4c-0.5,1.2-1.1,1.9-1.8,2.1c-0.1,0-0.2,0-0.3,0
				c-0.7,0-1.5-0.5-2.4-1.3c-0.2-0.2-0.4-0.3-0.7-0.3c-0.3,0-0.5,0.1-0.7,0.3c-0.4,0.4-0.4,1,0,1.3c0.9,0.9,1.8,1.5,2.7,1.7
				c0.2,0.7,0.4,1.9,0,3.2c-0.6,1.8-3.3,2.5-3.3,2.5l-0.4,0.1l-0.2,0l0,0.2l-0.1,0.4c-0.7,3.7-1.1,3.9-2.8,4.8
				c-0.6,0.3-1.5,0.5-2.5,0.5c0,0-0.1,0-0.1,0c-0.3-1.9-2-4-3.8-4.6c-0.3-0.1-0.6-0.1-0.9-0.1c-0.9,0-1.7,0.4-2.2,1.2
				c-0.7,1-0.6,2.2,0.3,3.1c0.8,0.9,2.4,1.7,4.3,2c-0.2,0.4-0.7,1-1.3,1.5c-0.7,0.6-1.9,1.3-3.4,1.3c-0.3,0-0.7,0-1-0.1
				c-4-0.7-5.1-4.2-5.2-4.4C76.9,61.4,76.8,61.3,76.8,61.2L76.8,61.2z M68.3,26.5c-1,0-1.9-0.5-2.9-1.5c-2.1-2.3-2.2-6-2.2-6.1
				c0,0,0-3.3,1.9-5c0.7-0.7,1.7-1,2.9-1c0.2,0,0.4,0,0.6,0c1.5,0.1,2.6,0.6,3.3,1.6c1.6,2.1,0.9,5.9,0.6,7.7
				c-0.3,1.7-1.7,3.8-3.4,4.3C68.8,26.4,68.5,26.5,68.3,26.5L68.3,26.5z M51,61.1c3.6-2.3,7.1-5.1,8-6.1c0.7-0.8,1.2-2.7,1.4-5.9
				c1.1,2.5,2.7,6.2,2.1,9.5c-0.3,1.8-1.3,2.1-3.5,2.1c-0.4,0-0.9,0-1.4,0c-0.6,0-1.2,0-1.8,0c-0.2,0-0.5,0-0.7,0
				C53.8,60.7,52.4,60.8,51,61.1L51,61.1z M88.2,61.3c-1.4-0.3-2.7-0.8-3.2-1.4c-0.3-0.3-0.3-0.5-0.1-0.8c0.2-0.3,0.4-0.4,0.6-0.4
				c0.1,0,0.2,0,0.3,0.1C86.8,59,87.9,60.2,88.2,61.3L88.2,61.3z M70.5,63.8c-1.5,0-2.9-0.4-3.5-1c-0.2-0.2-0.2-0.4-0.2-0.5
				c0-0.2,0.1-0.3,0.5-0.4c0.1,0,0.2,0,0.3,0c0.7,0,1.8,0.5,2.7,1.5C70.4,63.6,70.5,63.7,70.5,63.8C70.5,63.8,70.5,63.8,70.5,63.8
				L70.5,63.8z"/>
		</g>
		<g>
			<path class="st2" d="M82.7,56.7c-1.7,0-3.1-1.4-3.1-3.1s1.4-3.1,3.1-3.1c1.1,0,2.2,0.6,2.7,1.6c0.1-0.1,0.2-0.1,0.3-0.1l4-0.7
				c0-0.4,0.2-0.8,0.4-1.1L88,48c-0.5,0.2-1.1,0.4-1.6,0.4c-0.2,0-0.4,0-0.6,0c-2.1-0.3-3-1.5-3.4-2.3c-0.4,0.1-0.7,0.1-1.1,0.1
				c-1.2,0-2.1-0.4-2.5-1c-0.1-0.2-0.1-0.4-0.1-0.6c0.1-0.2,0.2-0.4,0.4-0.5c0.1-0.1,0.2-0.1,0.4-0.1c0.3,0,0.6,0.2,0.7,0.4
				c0.1,0,0.5,0.2,1.1,0.2c0.3,0,0.9,0,1.4-0.3c1-0.4,1.6-1.3,1.6-2.5c0-0.9-0.3-1.6-0.8-2.1c-0.9-0.8-2.3-0.9-2.9-0.9
				c0,0-0.2,0-0.2,0c-0.5,0-0.8-0.3-0.9-0.8c0-0.4,0.3-0.8,0.8-0.9c0,0,0.1,0,0.3,0c0.8,0,2.7,0.1,4,1.4c0.7,0.6,1.1,1.5,1.3,2.5h7
				c0.4-1.3,1.5-2.2,2.9-2.2c1.6,0,3,1.3,3,3s-1.3,3-3,3c-1.3,0-2.5-0.9-2.9-2.2h-7c-0.2,1.3-0.9,2.3-2,3c0.3,0.4,0.9,1.1,2.1,1.3
				c0.1,0,0.2,0,0.3,0c1.8,0,2.6-1.9,2.6-2c0.1-0.3,0.4-0.5,0.8-0.5c0.1,0,0.2,0,0.3,0c0.4,0.2,0.6,0.6,0.5,1
				c-0.2,0.6-0.6,1.3-1.1,1.8l1.9,2c0.4-0.2,0.9-0.3,1.3-0.3c1.6,0,2.9,1.3,2.9,2.9s-1.3,2.9-2.9,2.9c-1.1,0-2-0.6-2.5-1.5L86,53.6
				c0,0-0.1,0-0.1,0c0,0,0,0,0,0C85.8,55.3,84.4,56.7,82.7,56.7z M82.7,52.2c-0.8,0-1.4,0.7-1.4,1.4s0.6,1.4,1.4,1.4
				s1.4-0.7,1.4-1.4S83.5,52.2,82.7,52.2z M92.6,50.4c-0.7,0-1.2,0.6-1.2,1.2s0.6,1.2,1.2,1.2s1.2-0.6,1.2-1.2S93.3,50.4,92.6,50.4z
				 M95.8,40.3c-0.7,0-1.3,0.6-1.3,1.3s0.6,1.3,1.3,1.3s1.3-0.6,1.3-1.3S96.6,40.3,95.8,40.3z"/>
			<path class="st2" d="M80.7,37.1c0.7,0,2.6,0.1,3.9,1.3c0.7,0.7,1.1,1.5,1.2,2.5h7.2c0.3-1.2,1.4-2.2,2.8-2.2
				c1.6,0,2.8,1.3,2.8,2.8s-1.3,2.8-2.8,2.8c-1.3,0-2.4-0.9-2.8-2.2h-7.2c-0.2,1.4-0.9,2.4-2,3c0.3,0.5,0.9,1.3,2.2,1.4
				c0.1,0,0.2,0,0.4,0c1.9,0,2.7-2,2.7-2.1c0.1-0.3,0.4-0.5,0.6-0.5c0.1,0,0.2,0,0.2,0c0.4,0.1,0.5,0.5,0.4,0.9
				c-0.2,0.5-0.6,1.2-1.2,1.8l2.1,2.2c0.4-0.2,0.9-0.3,1.3-0.3c1.5,0,2.7,1.2,2.7,2.7c0,1.5-1.2,2.7-2.7,2.7c-1.1,0-2-0.6-2.5-1.6
				L86,53.5c0,0-0.1,0-0.1,0c-0.1,0-0.1,0-0.2,0c0,0,0,0.1,0,0.1c0,1.6-1.3,3-3,3c-1.6,0-3-1.3-3-3c0-1.6,1.3-3,3-3
				c1.2,0,2.2,0.7,2.7,1.7c0.1-0.1,0.2-0.1,0.3-0.2l4.1-0.7c0-0.5,0.2-0.9,0.4-1.3l-2.2-2.3c-0.5,0.2-1,0.4-1.7,0.4
				c-0.2,0-0.4,0-0.5,0c-2.1-0.3-3-1.6-3.4-2.3C82.1,46,81.7,46,81.4,46c-1,0-2-0.3-2.4-1c-0.2-0.3,0-0.8,0.3-0.9
				c0.1-0.1,0.2-0.1,0.3-0.1c0.2,0,0.5,0.1,0.6,0.3c0.1,0.1,0.6,0.2,1.2,0.2c0.4,0,0.9-0.1,1.5-0.3c1.1-0.5,1.7-1.4,1.7-2.7
				c0-1-0.3-1.7-0.8-2.2c-0.9-0.9-2.4-1-3-1c-0.1,0-0.2,0-0.2,0c0,0,0,0,0,0c-0.4,0-0.7-0.3-0.7-0.6c0-0.4,0.3-0.7,0.6-0.7
				C80.4,37.1,80.5,37.1,80.7,37.1 M95.8,43.2c0.8,0,1.5-0.7,1.5-1.5s-0.7-1.5-1.5-1.5s-1.5,0.7-1.5,1.5S95,43.2,95.8,43.2 M92.6,53
				c0.8,0,1.4-0.6,1.4-1.4c0-0.8-0.6-1.4-1.4-1.4c-0.8,0-1.4,0.6-1.4,1.4C91.2,52.4,91.8,53,92.6,53 M82.7,55.2
				c0.9,0,1.6-0.7,1.6-1.6c0-0.9-0.7-1.6-1.6-1.6c-0.9,0-1.6,0.7-1.6,1.6C81.2,54.5,81.9,55.2,82.7,55.2 M80.7,36.9
				c-0.2,0-0.3,0-0.3,0c-0.5,0-0.9,0.5-0.9,1c0,0.5,0.4,0.9,0.9,0.9h0l0.1,0c0,0,0.1,0,0.2,0c0.4,0,1.9,0.1,2.8,0.9
				c0.5,0.5,0.8,1.1,0.8,2c0,1.2-0.5,2-1.5,2.4c-0.5,0.2-1,0.3-1.4,0.3c-0.5,0-0.9-0.1-1-0.2c-0.2-0.3-0.5-0.4-0.8-0.4
				c-0.2,0-0.3,0-0.4,0.1c-0.2,0.1-0.4,0.3-0.5,0.6c-0.1,0.2-0.1,0.5,0.1,0.7c0.4,0.7,1.3,1.1,2.6,1.1c0.3,0,0.7,0,1-0.1
				c0.4,0.8,1.4,2,3.5,2.3c0.2,0,0.4,0,0.6,0c0.6,0,1.1-0.1,1.6-0.3l1.9,2.1c-0.2,0.3-0.3,0.7-0.3,1l-3.9,0.7c-0.1,0-0.1,0-0.2,0.1
				c-0.6-1-1.6-1.6-2.8-1.6c-1.8,0-3.2,1.4-3.2,3.2c0,1.8,1.4,3.2,3.2,3.2c1.7,0,3.1-1.3,3.2-3c0,0,0,0,0.1,0l4-0.7
				c0.5,0.9,1.5,1.5,2.6,1.5c1.7,0,3-1.3,3-3c0-1.7-1.3-3-3-3c-0.4,0-0.9,0.1-1.3,0.3l-1.8-1.9c0.7-0.7,1-1.5,1.1-1.7
				c0.2-0.5-0.1-1-0.6-1.2c-0.1,0-0.2-0.1-0.3-0.1c-0.4,0-0.7,0.2-0.9,0.6c0,0.1-0.7,2-2.5,2c-0.1,0-0.2,0-0.3,0
				c-1.1-0.1-1.6-0.7-1.9-1.1c1-0.6,1.7-1.6,1.9-2.9h6.8c0.4,1.3,1.6,2.2,2.9,2.2c1.7,0,3.1-1.4,3.1-3.1c0-1.7-1.4-3.1-3.1-3.1
				c-1.4,0-2.5,0.9-2.9,2.2H86c-0.2-1-0.6-1.8-1.3-2.5C83.4,37,81.5,36.9,80.7,36.9L80.7,36.9z M95.8,42.9c-0.7,0-1.2-0.5-1.2-1.2
				c0-0.7,0.5-1.2,1.2-1.2S97,41,97,41.7C97,42.4,96.5,42.9,95.8,42.9L95.8,42.9z M92.6,52.8c-0.6,0-1.1-0.5-1.1-1.1
				c0-0.6,0.5-1.1,1.1-1.1c0.6,0,1.1,0.5,1.1,1.1C93.7,52.3,93.2,52.8,92.6,52.8L92.6,52.8z M82.7,54.9c-0.7,0-1.3-0.6-1.3-1.3
				c0-0.7,0.6-1.3,1.3-1.3c0.7,0,1.3,0.6,1.3,1.3C84,54.3,83.5,54.9,82.7,54.9L82.7,54.9z"/>
		</g>
		<g>
			<path class="st2" d="M85.8,36.5c-0.3,0-0.5-0.1-0.7-0.3c-0.1-0.2-0.2-0.4-0.1-0.6c0-0.2,0.1-0.4,0.3-0.5c0.4-0.3,0.7-1.3,0.6-2.3
				c0-0.5-0.2-1.4-1-1.8c-0.7-0.4-1.3-0.5-1.8-0.5c-0.3,0-0.6,0.1-0.8,0.2c-1.1,0.5-1.6,2.1-1.6,2.1c-0.1,0.4-0.4,0.6-0.8,0.6
				c-0.1,0-0.1,0-0.2,0c-0.4-0.1-0.7-0.5-0.6-1c0-0.1,0.3-1.3,1.3-2.3c-0.9-1-1.6-1.1-1.7-1.1l0-0.1l-0.1,0l-0.2-1.5l0.1,0
				c0,0,0.1,0,0.1,0c0.5,0,1.7,0.2,3,1.8c0.4-0.2,0.9-0.3,1.4-0.3c0.8,0,1.7,0.2,2.6,0.7l0.1,0l2.5-2.8c-0.2-0.4-0.3-0.8-0.3-1.2
				c0-0.1,0-0.2,0-0.3c0,0-0.1,0-0.1,0l-3.9-2c-0.6,0.6-1.4,1-2.2,1c-1.6,0-3-1.3-3-3s1.3-3,3-3s3,1.3,3,3c0,0.2,0,0.3,0,0.5
				c0,0,4,2,4,2c0.5-0.5,1.2-0.8,1.9-0.8c1.4,0,2.6,1.2,2.6,2.6c0,1.4-1.2,2.6-2.6,2.6c-0.4,0-0.8-0.1-1.1-0.3L87,30.6
				c0.4,0.6,0.6,1.2,0.6,2c0.1,1.5-0.4,3.1-1.3,3.7C86.2,36.4,86,36.5,85.8,36.5z M90.6,24.5c-0.5,0-1,0.4-1,1s0.4,1,1,1s1-0.4,1-1
				S91.2,24.5,90.6,24.5z M81.8,19.8c-0.8,0-1.4,0.6-1.4,1.4c0,0.8,0.6,1.4,1.4,1.4s1.4-0.6,1.4-1.4C83.2,20.4,82.6,19.8,81.8,19.8z
				"/>
			<path class="st2" d="M81.8,18.3c1.6,0,2.9,1.3,2.9,2.9c0,0.2,0,0.4-0.1,0.6l4,2.1c0,0,0.1,0,0.1,0.1c0.5-0.5,1.1-0.9,1.9-0.9
				c1.4,0,2.5,1.1,2.5,2.5c0,1.4-1.1,2.5-2.5,2.5c-0.4,0-0.8-0.1-1.2-0.3l-2.6,2.9c0.4,0.6,0.6,1.2,0.7,2c0.1,1.5-0.4,3-1.3,3.6
				c-0.1,0.1-0.3,0.1-0.4,0.1c-0.2,0-0.4-0.1-0.6-0.3c-0.2-0.3-0.2-0.7,0.2-1c0.4-0.3,0.8-1.3,0.7-2.4c0-0.5-0.2-1.5-1.1-1.9
				c-0.7-0.4-1.3-0.6-1.9-0.6c-0.3,0-0.6,0.1-0.9,0.2c-1.2,0.6-1.6,2.2-1.6,2.2c-0.1,0.3-0.4,0.5-0.7,0.5c-0.1,0-0.1,0-0.2,0
				c-0.4-0.1-0.6-0.5-0.5-0.8c0-0.1,0.3-1.4,1.3-2.4c-1-1.1-1.7-1.2-1.9-1.2c0,0,0,0,0,0l0,0l-0.1-1.4c0,0,0.1,0,0.1,0
				c0.4,0,1.7,0.2,3,1.8c0.4-0.2,0.9-0.3,1.4-0.3c0.8,0,1.6,0.2,2.5,0.7c0.1,0,0.1,0.1,0.1,0.1l2.6-2.9c-0.2-0.4-0.3-0.8-0.3-1.2
				c0-0.1,0-0.3,0-0.4c-0.1,0-0.1,0-0.2-0.1l-4-2c-0.5,0.6-1.3,1.1-2.2,1.1c-1.6,0-2.9-1.3-2.9-2.9C79,19.6,80.3,18.3,81.8,18.3
				 M81.8,22.6c0.8,0,1.5-0.7,1.5-1.5c0-0.8-0.7-1.5-1.5-1.5s-1.5,0.7-1.5,1.5C80.4,22,81,22.6,81.8,22.6 M90.6,26.6
				c0.6,0,1.1-0.5,1.1-1.1s-0.5-1.1-1.1-1.1c-0.6,0-1.1,0.5-1.1,1.1S90,26.6,90.6,26.6 M81.8,18c-1.7,0-3.1,1.4-3.1,3.1
				c0,1.7,1.4,3.1,3.1,3.1c0.9,0,1.7-0.4,2.3-1l3.8,2c0,0.1,0,0.2,0,0.3c0,0.4,0.1,0.8,0.3,1.2l-2.4,2.6c-0.9-0.5-1.8-0.7-2.6-0.7
				c-0.5,0-0.9,0.1-1.4,0.2c-1.3-1.6-2.6-1.7-3.1-1.7c-0.1,0-0.1,0-0.2,0l-0.2,0l0,0.2l0.1,1.4l0.2,0l0,0.2c0,0,0.7,0,1.5,0.9
				c-0.9,1-1.2,2.2-1.2,2.3c-0.1,0.5,0.2,1,0.7,1.1c0.1,0,0.1,0,0.2,0c0.4,0,0.8-0.3,0.9-0.7c0,0,0.4-1.5,1.5-2
				c0.2-0.1,0.5-0.2,0.8-0.2c0.5,0,1.1,0.2,1.8,0.5c0.7,0.4,0.9,1.2,0.9,1.7c0.1,1-0.3,1.9-0.6,2.1c-0.4,0.3-0.5,0.9-0.2,1.3
				c0.2,0.2,0.5,0.4,0.8,0.4c0.2,0,0.4-0.1,0.6-0.2c0.9-0.7,1.5-2.2,1.4-3.8c-0.1-0.7-0.3-1.4-0.6-2l2.4-2.6
				c0.3,0.2,0.7,0.2,1.1,0.2c1.5,0,2.7-1.2,2.7-2.7c0-1.5-1.2-2.7-2.7-2.7c-0.7,0-1.4,0.3-1.9,0.8l-3.8-2c0-0.1,0-0.3,0-0.4
				C85,19.4,83.6,18,81.8,18L81.8,18z M81.8,22.4c-0.7,0-1.2-0.6-1.2-1.2c0-0.7,0.6-1.2,1.2-1.2c0.7,0,1.2,0.6,1.2,1.2
				C83.1,21.8,82.5,22.4,81.8,22.4L81.8,22.4z M90.6,26.3c-0.5,0-0.9-0.4-0.9-0.9c0-0.5,0.4-0.9,0.9-0.9c0.5,0,0.9,0.4,0.9,0.9
				C91.5,26,91.1,26.3,90.6,26.3L90.6,26.3z"/>
		</g>
	</g>
	<g>
		<path class="st2" d="M115.1,62.4V42.9c0-3.5,0.9-6.1,2.6-7.8c1.7-1.7,4.4-2.6,7.9-2.6h4.3v3.7H125c-1.9,0-3.4,0.5-4.4,1.6
			c-1,1-1.5,2.6-1.5,4.5v3.3h10.9v3.7h-10.9v13.1H115.1z"/>
		<path class="st2" d="M132.5,36.1c0-0.6,0.2-1.1,0.6-1.6s1-0.6,1.6-0.6c0.6,0,1.1,0.2,1.6,0.6c0.4,0.4,0.6,0.9,0.6,1.6
			c0,0.6-0.2,1.2-0.6,1.6c-0.4,0.4-0.9,0.7-1.6,0.7c-0.6,0-1.1-0.2-1.6-0.7C132.7,37.3,132.5,36.7,132.5,36.1z M132.9,62.4V41.9h3.7
			v20.4H132.9z"/>
		<path class="st2" d="M140.6,58.9h8.8c0.9,0,1.6-0.2,2.1-0.5c0.5-0.3,0.8-0.8,0.8-1.4c0-0.5-0.2-1-0.6-1.3
			c-0.4-0.4-1.1-0.8-2.2-1.2L146,53c-2.1-0.8-3.5-1.7-4.3-2.6c-0.8-0.9-1.2-2-1.2-3.3c0-1.7,0.6-2.9,1.8-3.8
			c1.2-0.9,2.9-1.3,5.1-1.3h7.6v3.4h-8.5c-0.7,0-1.2,0.2-1.6,0.5s-0.6,0.7-0.6,1.3c0,0.4,0.2,0.8,0.5,1.1c0.3,0.3,0.9,0.7,1.7,1
			l3.7,1.5c2.3,0.9,3.8,1.9,4.6,2.7c0.8,0.9,1.2,2,1.2,3.3c0,1.9-0.7,3.3-2.1,4.2c-1.4,0.9-3.6,1.4-6.5,1.4h-6.9V58.9z"/>
		<path class="st2" d="M159.7,36.1c0-0.6,0.2-1.1,0.6-1.6s1-0.6,1.6-0.6c0.6,0,1.1,0.2,1.6,0.6c0.4,0.4,0.6,0.9,0.6,1.6
			c0,0.6-0.2,1.2-0.6,1.6c-0.4,0.4-0.9,0.7-1.6,0.7c-0.6,0-1.1-0.2-1.6-0.7C159.9,37.3,159.7,36.7,159.7,36.1z M160.1,62.4V41.9h3.7
			v20.4H160.1z"/>
		<path class="st2" d="M167.5,52.1c0-1.4,0.3-2.8,0.8-4c0.5-1.3,1.3-2.4,2.3-3.5c1-1,2.1-1.8,3.3-2.3c1.2-0.5,2.5-0.8,3.9-0.8
			s2.7,0.3,4,0.8c1.3,0.5,2.4,1.3,3.3,2.3c1,1,1.7,2.1,2.3,3.4c0.5,1.3,0.8,2.6,0.8,4.1c0,1.4-0.3,2.8-0.8,4.1
			c-0.5,1.3-1.3,2.4-2.3,3.4c-1,1-2.1,1.8-3.3,2.3c-1.3,0.5-2.6,0.8-4,0.8s-2.7-0.3-3.9-0.8c-1.2-0.5-2.3-1.3-3.3-2.3
			c-1-1-1.8-2.2-2.3-3.5C167.8,54.9,167.5,53.5,167.5,52.1z M171.4,52.1c0,2,0.6,3.7,1.9,5.1c1.3,1.4,2.8,2.1,4.6,2.1
			c1.8,0,3.3-0.7,4.6-2.1c1.3-1.4,1.9-3.1,1.9-5.1c0-2-0.6-3.6-1.9-5c-1.3-1.4-2.8-2.1-4.6-2.1c-1.8,0-3.3,0.7-4.6,2.1
			C172,48.4,171.4,50.1,171.4,52.1z"/>
		<path class="st2" d="M196,62.4h-3.8V36.5c0-1.4,0.3-2.5,0.8-3.2s1.4-1.1,2.4-1.1c0.7,0,1.4,0.2,2,0.7c0.6,0.5,1.1,1.2,1.6,2.3
			l10.8,22.3v-25h3.8v25.9c0,1.4-0.3,2.4-0.8,3.2c-0.6,0.8-1.3,1.1-2.3,1.1c-0.8,0-1.5-0.2-2.1-0.7c-0.6-0.5-1.2-1.2-1.6-2.2
			L196,37.3V62.4z"/>
		<path class="st2" d="M238.3,53.3c-0.5,2.9-1.7,5.2-3.5,6.9s-4.1,2.5-6.8,2.5c-0.9,0-1.8-0.1-2.7-0.4c-0.9-0.2-1.7-0.6-2.5-1.1
			c-1.6-1-2.9-2.3-3.8-3.9c-0.9-1.6-1.4-3.4-1.4-5.3c0-1.4,0.3-2.8,0.8-4c0.5-1.3,1.3-2.4,2.3-3.5c1-1,2.1-1.8,3.4-2.3
			c1.3-0.5,2.6-0.8,4-0.8c2.1,0,3.9,0.5,5.6,1.6c1.6,1.1,3,2.7,4,4.8l-13.4,7.4l-1.5-2.8l9.9-5.5c-0.6-0.7-1.3-1.2-2.1-1.5
			c-0.8-0.3-1.6-0.5-2.5-0.5c-1.8,0-3.4,0.7-4.6,2.1c-1.3,1.4-1.9,3.1-1.9,5.1c0,2,0.6,3.7,1.9,5.1c1.3,1.4,2.8,2.1,4.6,2.1
			c1.7,0,3.2-0.6,4.4-1.7s1.9-2.7,2.2-4.7L238.3,53.3z"/>
		<path class="st2" d="M259.1,41.9v11.2c0,3-0.8,5.3-2.4,7.1c-1.6,1.7-3.7,2.6-6.3,2.6c-2.6,0-4.7-0.9-6.3-2.6
			c-1.6-1.7-2.4-4.1-2.4-7.1V41.9h3.6v11.8c0,1.6,0.5,2.9,1.4,3.9c1,1,2.2,1.5,3.6,1.5c1.5,0,2.7-0.5,3.6-1.5c0.9-1,1.4-2.3,1.4-3.9
			V41.9H259.1z"/>
		<path class="st2" d="M263.9,62.4V41.9h3.4v3c0.6-1.2,1.5-2.1,2.6-2.6c1.1-0.5,2.6-0.8,4.4-0.8h1v3.5h-0.6c-2.5,0-4.3,0.6-5.5,1.8
			c-1.1,1.2-1.7,3.1-1.7,5.8v9.7H263.9z"/>
		<path class="st2" d="M276.5,52.1c0-1.4,0.3-2.8,0.8-4c0.5-1.3,1.3-2.4,2.3-3.5c1-1,2.1-1.8,3.3-2.3c1.2-0.5,2.5-0.8,3.9-0.8
			s2.7,0.3,4,0.8c1.3,0.5,2.4,1.3,3.3,2.3c1,1,1.7,2.1,2.3,3.4c0.5,1.3,0.8,2.6,0.8,4.1c0,1.4-0.3,2.8-0.8,4.1
			c-0.5,1.3-1.3,2.4-2.3,3.4c-1,1-2.1,1.8-3.3,2.3c-1.3,0.5-2.6,0.8-4,0.8s-2.7-0.3-3.9-0.8c-1.2-0.5-2.3-1.3-3.3-2.3
			c-1-1-1.8-2.2-2.3-3.5C276.8,54.9,276.5,53.5,276.5,52.1z M280.3,52.1c0,2,0.6,3.7,1.9,5.1c1.3,1.4,2.8,2.1,4.6,2.1
			c1.8,0,3.3-0.7,4.6-2.1c1.3-1.4,1.9-3.1,1.9-5.1c0-2-0.6-3.6-1.9-5c-1.3-1.4-2.8-2.1-4.6-2.1c-1.8,0-3.3,0.7-4.6,2.1
			C280.9,48.4,280.3,50.1,280.3,52.1z"/>
		<path class="st2" d="M301,62.4V32.5h3.7v29.8H301z"/>
		<path class="st2" d="M308.4,52.1c0-1.4,0.3-2.8,0.8-4c0.5-1.3,1.3-2.4,2.3-3.5c1-1,2.1-1.8,3.3-2.3c1.2-0.5,2.5-0.8,3.9-0.8
			s2.7,0.3,4,0.8c1.3,0.5,2.4,1.3,3.3,2.3c1,1,1.7,2.1,2.3,3.4c0.5,1.3,0.8,2.6,0.8,4.1c0,1.4-0.3,2.8-0.8,4.1
			c-0.5,1.3-1.3,2.4-2.3,3.4c-1,1-2.1,1.8-3.3,2.3c-1.3,0.5-2.6,0.8-4,0.8s-2.7-0.3-3.9-0.8c-1.2-0.5-2.3-1.3-3.3-2.3
			c-1-1-1.8-2.2-2.3-3.5C308.7,54.9,308.4,53.5,308.4,52.1z M312.2,52.1c0,2,0.6,3.7,1.9,5.1c1.3,1.4,2.8,2.1,4.6,2.1
			c1.8,0,3.3-0.7,4.6-2.1c1.3-1.4,1.9-3.1,1.9-5.1c0-2-0.6-3.6-1.9-5c-1.3-1.4-2.8-2.1-4.6-2.1c-1.8,0-3.3,0.7-4.6,2.1
			C312.9,48.4,312.2,50.1,312.2,52.1z M315.9,39.5l4.4-7.3h3.7l-5.9,7.3H315.9z"/>
		<path class="st2" d="M352.2,61.2c0,3.3-0.9,5.9-2.8,7.8c-1.9,1.9-4.4,2.9-7.7,2.9c-1,0-2-0.1-3.1-0.3c-1.1-0.2-2.2-0.5-3.4-0.9
			l0.8-3.5c1.2,0.4,2.3,0.7,3.2,0.9c0.9,0.2,1.8,0.3,2.5,0.3c2.1,0,3.7-0.6,4.9-1.8c1.2-1.2,1.8-2.9,1.8-5v-9.3
			c0-2.1-0.6-3.9-1.8-5.2c-1.2-1.3-2.8-2-4.7-2c-1.9,0-3.5,0.7-4.7,2c-1.2,1.3-1.8,3-1.8,5.1c0,2.1,0.6,3.8,1.9,5.2
			c1.3,1.3,2.9,2,4.8,2c0.9,0,1.8-0.2,2.6-0.5s1.7-0.8,2.5-1.4v3.9c-0.8,0.5-1.7,0.8-2.6,1.1c-0.9,0.2-1.9,0.3-2.9,0.3
			c-1,0-1.9-0.1-2.9-0.4c-1-0.3-1.8-0.7-2.6-1.3c-1.5-1-2.6-2.3-3.4-3.8c-0.8-1.5-1.2-3.2-1.2-5.1c0-3.1,1-5.6,2.9-7.6
			c1.9-2,4.4-3,7.4-3c2,0,3.8,0.5,5.4,1.5c1.6,1,2.9,2.3,3.8,4.1c0.4,0.8,0.7,1.6,0.9,2.6c0.2,0.9,0.3,2.3,0.3,4.1V61.2z"/>
		<path class="st2" d="M356.5,36.1c0-0.6,0.2-1.1,0.6-1.6s1-0.6,1.6-0.6c0.6,0,1.1,0.2,1.6,0.6c0.4,0.4,0.6,0.9,0.6,1.6
			c0,0.6-0.2,1.2-0.6,1.6c-0.4,0.4-0.9,0.7-1.6,0.7c-0.6,0-1.1-0.2-1.6-0.7C356.7,37.3,356.5,36.7,356.5,36.1z M356.9,62.4V41.9h3.7
			v20.4H356.9z"/>
		<path class="st2" d="M378.2,45.4h-1.6c-2.6,0-4.6,0.6-6.1,1.8c-1.5,1.2-2.3,2.9-2.3,4.9c0,2,0.8,3.7,2.3,4.9
			c1.5,1.2,3.6,1.8,6.1,1.8h1.6v3.5h-1.8c-3.7,0-6.6-0.9-8.7-2.8c-2.2-1.9-3.3-4.4-3.3-7.5c0-1.7,0.4-3.2,1.2-4.7
			c0.8-1.4,1.9-2.7,3.3-3.6c1-0.7,2.1-1.1,3.2-1.4c1.1-0.3,2.6-0.4,4.3-0.4h1.8V45.4z"/>
		<path class="st2" d="M397.6,62.4V52.2c0-2.1-0.6-3.9-1.8-5.2c-1.2-1.3-2.8-2-4.7-2c-1.9,0-3.5,0.7-4.7,2c-1.2,1.3-1.8,3-1.8,5.1
			c0,2.1,0.6,3.8,1.9,5.2c1.3,1.3,2.9,2,4.8,2c0.9,0,1.8-0.2,2.6-0.5s1.7-0.8,2.5-1.4v3.9c-0.8,0.5-1.7,0.8-2.6,1.1
			c-0.9,0.2-1.9,0.3-2.9,0.3c-1,0-1.9-0.1-2.9-0.4c-1-0.3-1.8-0.7-2.6-1.3c-1.5-1-2.6-2.3-3.4-3.8c-0.8-1.5-1.2-3.2-1.2-5.1
			c0-3.1,1-5.6,2.9-7.6c1.9-2,4.4-3,7.4-3c2,0,3.8,0.5,5.4,1.5c1.6,1,2.9,2.3,3.8,4.1c0.4,0.8,0.7,1.6,0.9,2.6
			c0.2,0.9,0.3,2.3,0.3,4.1v8.6H397.6z"/>
	</g>
</g>
</svg>
